<svg xmlns="http://www.w3.org/2000/svg" viewBox="0 0 64 64" width="64" height="64">
  <!-- Background Circle -->
  <circle cx="32" cy="32" r="30" fill="#E1BEE7" />
  
  <!-- Face -->
  <circle cx="32" cy="30" r="20" fill="#FFFFFF" />
  
  <!-- Eyes -->
  <circle cx="25" cy="26" r="3" fill="#0066FF" />
  <circle cx="39" cy="26" r="3" fill="#0066FF" />
  <circle cx="25" cy="26" r="1" fill="#FFFFFF" />
  <circle cx="39" cy="26" r="1" fill="#FFFFFF" />
  
  <!-- Smile -->
  <path d="M24,34 Q32,42 40,34" stroke="#FF69B4" stroke-width="2" fill="none" />
  
  <!-- Hair/Head Features -->
  <path d="M15,18 C15,12 25,5 32,5 C39,5 49,12 49,18 C49,24 44,28 44,28 L20,28 C20,28 15,24 15,18" fill="#9C27B0" />
  
  <!-- Tech Elements -->
  <circle cx="14" cy="22" r="2" fill="#00BCD4" />
  <circle cx="50" cy="22" r="2" fill="#00BCD4" />
  <path d="M14,22 C12,18 14,14 18,14" stroke="#00BCD4" stroke-width="1" fill="none" />
  <path d="M50,22 C52,18 50,14 46,14" stroke="#00BCD4" stroke-width="1" fill="none" />
  
  <!-- Digital Elements -->
  <rect x="30" y="10" width="4" height="1" fill="#00BCD4" />
  <rect x="30" y="12" width="4" height="1" fill="#00BCD4" />
  <rect x="30" y="14" width="4" height="1" fill="#00BCD4" />
</svg> 